<svg width="550" height="585" viewBox="0 0 550 585" fill="none" xmlns="http://www.w3.org/2000/svg">
<g clip-path="url(#clip0_1_88)">
<path d="M335.003 533.162C330.987 540.118 340.952 553.389 357.259 562.804C373.567 572.219 390.042 574.213 394.058 567.257C398.074 560.302 388.109 547.031 371.802 537.615C355.494 528.2 339.019 526.207 335.003 533.162Z" fill="#0EA5E9"/>
<path d="M335.829 533.639C332.076 540.139 341.884 552.827 357.736 561.979C373.587 571.131 389.48 573.281 393.233 566.781C396.985 560.281 387.177 547.593 371.325 538.441C355.474 529.289 339.581 527.139 335.829 533.639Z" stroke="#0EA5E9" stroke-width="1.90598"/>
<path d="M364.53 583.128C371.912 583.128 377.896 568.39 377.896 550.211C377.896 532.031 371.912 517.293 364.53 517.293C357.149 517.293 351.165 532.031 351.165 550.211C351.165 568.39 357.149 583.128 364.53 583.128Z" stroke="#3F3F46" stroke-width="1.90598"/>
<path d="M335.828 566.781C339.58 573.281 355.473 571.131 371.324 561.979C387.176 552.827 396.984 540.139 393.232 533.639C389.479 527.139 373.586 529.289 357.735 538.441C341.883 547.593 332.075 560.281 335.828 566.781Z" stroke="#3F3F46" stroke-width="1.90598"/>
<path d="M364.53 555.993C367.876 555.993 370.588 553.403 370.588 550.21C370.588 547.016 367.876 544.427 364.53 544.427C361.184 544.427 358.472 547.016 358.472 550.21C358.472 553.403 361.184 555.993 364.53 555.993Z" fill="white"/>
<path d="M535.386 263.982V292.881C535.386 292.881 533.834 301.406 505.357 301.599C476.881 301.791 473.971 292.881 473.971 292.881V265.467" fill="#64748B"/>
<path d="M535.386 263.982V292.881C535.386 292.881 533.834 301.406 505.357 301.599C476.881 301.791 473.971 292.881 473.971 292.881V265.467" stroke="#64748B" stroke-width="1.90598"/>
<path d="M502.398 243.513L542.24 259.607L504.042 279.525L465.82 260.391L502.398 243.513Z" fill="#3F3F46" stroke="#3F3F46" stroke-width="3.81197" stroke-linecap="round" stroke-linejoin="round"/>
<path d="M545.217 301.692V260.642H506.676" stroke="#FBBF24" stroke-width="2.85898" stroke-linecap="round" stroke-linejoin="round"/>
<path d="M541.704 305.875C541.41 307.242 540.97 319.552 540.97 319.552H549.996L549.114 305.875C549.114 305.875 545.636 298.407 541.704 305.875Z" fill="#FBBF24"/>
<path d="M412.83 110.809L424.076 90.6654C424.076 90.6654 436.693 86.0292 433.271 99.331C415.793 109.668 412.83 110.809 412.83 110.809Z" fill="#FBBF24" stroke="#FBBF24" stroke-width="1.90598"/>
<path d="M496.471 27.6651C496.471 27.6651 451.548 22.6553 426.498 83.7773C439.691 97.4709 440.191 97.8053 440.191 97.8053C440.191 97.8053 492.797 77.2646 496.471 33.344C496.47 28.7182 496.471 27.6651 496.471 27.6651Z" fill="#EC4899" stroke="#EC4899" stroke-width="1.90598"/>
<path d="M465.893 68.3359C471.597 68.3359 476.22 63.7125 476.22 58.0093C476.22 52.306 471.597 47.6826 465.893 47.6826C460.19 47.6826 455.567 52.306 455.567 58.0093C455.567 63.7125 460.19 68.3359 465.893 68.3359Z" fill="white"/>
<path d="M465.893 66.4299C470.544 66.4299 474.314 62.6599 474.314 58.0093C474.314 53.3587 470.544 49.5886 465.893 49.5886C461.243 49.5886 457.473 53.3587 457.473 58.0093C457.473 62.6599 461.243 66.4299 465.893 66.4299Z" stroke="#FBBF24" stroke-width="3.81197"/>
<path d="M467.927 81.5996L468.717 98.0035L455.375 111.739L450.632 92.7659L431.166 73.2L412.296 68.9515L425.734 55.2161L441.94 55.7106" fill="#EC4899"/>
<path d="M451.918 72.0154L435.367 88.7976" stroke="white" stroke-width="3.81197" stroke-linecap="round"/>
<path d="M118.839 413.981L88.562 400.046L58.4097 413.981V443.499C58.4097 443.499 57.5232 451.354 66.5185 459.208C88.5535 476.347 88.562 476.311 88.562 476.311L113.139 457.308C113.139 457.308 118.839 453.128 118.839 443.499V413.981Z" fill="#3F3F46"/>
<path d="M140.758 416.84L110.481 402.905L80.3285 416.84V446.358C80.3285 446.358 79.442 454.213 88.4373 462.067C110.472 479.206 110.481 479.17 110.481 479.17L135.058 460.167C135.058 460.167 140.758 455.987 140.758 446.358V416.84Z" fill="#2ED573" stroke="#3F3F46" stroke-width="1.90598"/>
<path d="M97.1466 441.694L106.016 449.905L123.916 432.169" stroke="white" stroke-width="5.71795" stroke-linecap="round"/>
<path d="M337.621 395.321C337.621 395.321 343.602 392.724 347.319 396.541C347.319 396.541 348.735 398.331 350.274 397.524C352.723 396.678 354.513 397.619 356.175 402.059C360.11 406.977 370.123 419.165 359.303 431.952C354.218 433.693 348.306 433.536 347.322 429.601C346.781 427.054 345.748 426.296 343.387 426.647C341.42 426.942 338.469 429.601 331.583 417.793C324.698 405.986 337.621 395.321 337.621 395.321Z" fill="white" stroke="#040505" stroke-width="0.932026" stroke-miterlimit="10"/>
<path d="M181.62 318.168C181.62 318.168 155.061 346.694 239.657 393.91C259.33 405.714 317.366 424.406 317.366 424.406C317.366 424.406 329.169 433.259 339.498 418.996C344.416 410.143 348.843 390.962 336.055 382.109C327.202 377.19 315.86 372.724 306.023 364.859C294.672 357.207 261.759 336.333 238.151 328.464C216.54 317.682 201.225 297.901 181.621 318.171L181.62 318.168Z" fill="#0488CB"/>
<path d="M365.497 395.666C365.497 395.666 372.382 393.699 375.333 397.633C383.837 410.883 390.769 425.077 395.99 439.93C402.876 460.587 398.945 468.456 390.089 469.44C373.967 471.23 365.497 395.666 365.497 395.666Z" fill="#5F6B75"/>
<path d="M359.596 396.649C359.596 396.649 352.71 397.633 354.677 402.551C355.661 405.505 363.531 409.437 360.579 423.208C358.612 428.127 353.694 430.094 359.596 437.963C361.563 439.93 365.498 444.849 371.399 456.653C375.334 465.506 381.236 474.358 394.023 468.456C395.99 467.473 399.925 463.538 393.04 441.897C385.171 420.257 378.285 406.486 370.416 396.649C368.448 394.683 366.482 394.683 359.596 396.649Z" fill="#0A0A0A"/>
<path d="M369.924 455.177L375.826 451.242" stroke="white" stroke-width="1.0359" stroke-miterlimit="10" stroke-linecap="round"/>
<path d="M366.973 449.274L374.291 443.737" stroke="white" stroke-width="1.0359" stroke-miterlimit="10" stroke-linecap="round"/>
<path d="M363.038 445.34L371.891 437.471" stroke="white" stroke-width="1.0359" stroke-miterlimit="10" stroke-linecap="round"/>
<path d="M365.497 394.681C365.497 394.681 369.923 392.223 380.193 412.093C385.244 421.536 401.401 453.209 395.499 467.965" stroke="white" stroke-width="0.518428" stroke-linecap="round" stroke-linejoin="round"/>
<path d="M236.151 227.115C236.151 227.115 199.439 280.848 182.545 315.194C179.561 321.081 177.461 326.628 178.535 329.929C179.988 334.363 190.596 363.224 232.063 333.928C239.979 324.622 259.852 298.372 259.852 298.372L294.548 245.429C294.548 245.429 272.641 208.61 236.151 227.115Z" fill="url(#paint0_linear_1_88)"/>
<path d="M231.274 242.201C231.274 242.201 193.955 302.217 186.835 324.811C191.639 315.511 233.366 242.469 244.543 236.047C238.295 235.618 235.514 236.508 231.274 242.201Z" fill="#44BEF8"/>
<path d="M240.715 488.317C240.715 488.317 243.922 493.028 240.905 494.819C237.889 496.61 238.279 499.393 239.115 500.662C240.344 502.629 240.157 503.616 239.429 504.538C238.701 505.459 237.009 507.492 237.993 515.358C238.976 522.243 236.754 527.351 252.597 526.811C268.439 526.271 260.387 519.62 271.208 497.979C272.309 493.33 268.349 493.414 268.349 493.414C268.349 493.414 269.338 488.042 263.509 488.977C256.624 487.994 240.718 488.319 240.718 488.319L240.715 488.317Z" fill="white" stroke="#040505" stroke-width="0.932026" stroke-miterlimit="10"/>
<path d="M275.837 511.295C277.678 515.456 278.077 520.113 276.968 524.526C274.014 533.379 264.181 549.113 245.491 565.84C233.687 576.66 223.309 578.775 216.699 568.378C226.093 552.491 275.837 511.293 275.837 511.293V511.295Z" fill="#555B5E"/>
<path d="M273.033 497.967C275.588 503.845 276.605 510.276 275.988 516.656C274.021 526.493 269.102 536.329 248.446 557.97C231.724 574.692 225.822 573.709 218.937 570.757C215.002 567.803 215.002 563.872 220.904 550.1C226.806 536.328 230.741 523.541 234.676 516.656C236.643 511.737 243.529 508.787 248.447 514.689C251.402 516.656 256.317 520.591 263.202 508.787C268.115 499.934 270.684 493.763 273.033 497.967Z" fill="#0A0A0A"/>
<path d="M276.477 510.261C276.477 510.261 277.46 528.95 250.409 556.005C240.573 565.842 228.277 578.305 217.457 570.268" stroke="white" stroke-width="0.518428" stroke-miterlimit="10" stroke-linecap="round"/>
<path d="M224.343 538.787C224.343 538.787 230.245 537.804 239.098 542.722" stroke="white" stroke-width="1.0359" stroke-miterlimit="10" stroke-linecap="round"/>
<path d="M227.294 529.935C227.294 529.935 235.163 528.951 244.999 533.87" stroke="white" stroke-width="1.0359" stroke-miterlimit="10" stroke-linecap="round"/>
<path d="M229.979 522.794C229.979 522.794 239.58 521.466 245.236 525.617" stroke="white" stroke-width="1.0359" stroke-miterlimit="10" stroke-linecap="round"/>
<path d="M320.741 270.394C320.741 270.394 322.708 294.981 303.036 354.005C298.117 368.76 295.167 372.694 295.167 404.171C294.183 420.893 295.167 435.649 276.478 468.109C270.378 478.575 269.1 491.225 263.199 492.209C257.297 493.192 240.083 495.652 237.131 486.799C234.18 477.945 236.64 462.699 236.64 445.977C236.64 433.19 235.164 434.665 234.18 416.96C233.196 399.254 231.226 382.532 243.033 340.234C249.919 314.659 248.935 315.647 249.919 280.231C250.902 276.296 242.05 249.735 253.854 227.113C277.456 238.917 303.028 254.654 320.741 270.394Z" fill="#0EA5E9"/>
<path d="M252.977 300.585C252.977 300.585 251.993 327.399 243.937 354.334C238.094 376.564 234.395 392.51 239.097 439.351C239.927 450.138 239.802 460.978 238.724 471.743C238.35 477.015 237.848 482.988 243.642 487.689C242.894 485.239 240.574 487.384 242.452 463.461C244.33 439.538 242.009 430.183 242.009 413.226C242.009 396.268 242.264 386.794 248.541 348.803C252.357 328.964 254.492 311.885 252.977 300.582V300.585Z" fill="#44BEF8"/>
<path d="M336.973 120.241C336.973 120.241 333.038 117.286 317.299 125.159C321.234 129.094 335.988 137.946 335.988 137.946C335.988 137.946 344.841 126.142 336.973 120.241Z" fill="#0FAC50"/>
<path d="M296.15 107.945C296.15 107.945 303.036 116.798 296.15 124.667C291.232 123.684 275.28 132.209 272.1 136.157C269.146 138.123 266.641 152.21 295.163 158.112C310.902 160.079 344.346 158.112 349.264 140.406C343.362 132.537 332.749 127.392 330.575 125.651C325.657 121.716 321.722 115.814 323.69 86.3045C315.82 85.321 285.327 91.2229 285.327 91.2229L296.15 107.945Z" fill="url(#paint1_linear_1_88)"/>
<path d="M243.48 124.565C238.655 130.897 237.218 146.669 242.241 163.987C253.246 161.318 257.346 151.033 257.346 151.033C257.346 151.033 254.297 127.517 243.476 124.565H243.48Z" fill="#0FAC50"/>
<path d="M275.902 149.923C261.671 186.797 246.801 204.444 231.293 202.864C226.911 202.161 222.788 197.808 221.496 186.354C220.71 179.388 221.785 176.107 233.014 168.383C236.752 165.104 238.307 163.787 250.49 148.596C257.008 137.46 264.216 134.515 264.216 134.515C275.071 129.605 276.698 144.639 275.902 149.923Z" fill="#ED9888"/>
<path d="M247.521 183.125C248.819 194.533 237.245 201.146 232.681 202.663C232.056 202.663 229.839 204.178 223.711 197.613C207.617 180.291 193.032 153.05 186.988 130.081C186.259 126.972 184.388 124.25 181.747 122.455C167.944 111.996 199.472 95.5618 202.252 112.456C203.307 118.867 203.632 121.537 206.292 125.819C228.729 155.067 234.941 163.715 238.113 170.765C238.174 171.577 246.68 167.394 247.521 183.125Z" fill="url(#paint2_linear_1_88)"/>
<path d="M201.551 120.05C201.551 120.05 202.4 109.225 200.467 104.243C199.974 101.39 197.75 98.1711 195.859 95.5123C193.968 92.8534 188.698 86.3633 187.471 81.8381C186.71 80.5964 182.177 80.3714 183.853 87.7412C186.427 94.9078 189.674 100.23 189.584 103.493C189.494 106.757 186.811 118.965 190.412 124.082C193.618 128.513 197.384 126.986 198.992 126.535C200.6 126.084 200.882 122.057 201.551 120.05Z" fill="#F2AB9A"/>
<path d="M202.285 125.888C202.285 125.888 195.48 134.916 182.465 132.451C172.183 130.276 168.837 125.085 168.837 125.085C168.837 125.085 159.005 110.172 171.882 100.563C175.244 98.1074 187.199 92.6681 193.178 104.431C196.214 107.09 198.611 110.401 200.188 114.117C201.765 117.832 202.481 121.856 202.285 125.888Z" fill="#F3AC9A"/>
<path d="M151.481 79.2426C151.481 79.2426 149.26 80.4945 150.924 83.1041C152.143 85.2031 175.939 125.712 175.939 125.712C176.162 126.187 176.554 126.562 177.039 126.763C177.523 126.964 178.066 126.977 178.56 126.8C180.417 126.246 198.923 118.674 198.923 118.674C199.289 118.548 199.622 118.343 199.9 118.073C200.177 117.803 200.392 117.475 200.527 117.113C200.663 116.751 200.717 116.363 200.685 115.977C200.653 115.591 200.536 115.217 200.342 114.882L174.314 72.8641C174.314 72.8641 173.559 71.4735 171.194 72.5859C169.022 73.2624 151.473 79.2428 151.473 79.2428L151.481 79.2426Z" fill="#2C2C2C"/>
<path d="M199.417 116.775L178.906 124.98C178.581 125.069 178.236 125.047 177.925 124.919C177.614 124.79 177.355 124.562 177.187 124.27L151.258 81.2994C151.112 81.0899 151.023 80.8455 151.002 80.5908C150.98 80.3362 151.026 80.0803 151.135 79.8492C151.25 79.6469 151.408 79.4721 151.597 79.337C151.787 79.2018 152.003 79.1096 152.232 79.0668L172.816 72.0018C173.14 71.9094 173.487 71.9291 173.798 72.0579C174.11 72.1867 174.369 72.417 174.534 72.7114L199.618 113.91C200.143 114.812 200.887 116.159 199.421 116.776L199.417 116.775Z" fill="#191919"/>
<mask id="mask0_1_88" style="mask-type:luminance" maskUnits="userSpaceOnUse" x="150" y="71" width="48" height="52">
<path d="M197.559 113.55L175.245 122.069L150.29 80.8135C150.026 80.4079 172.492 71.9661 172.492 71.9661L197.559 113.55Z" fill="white"/>
</mask>
<g mask="url(#mask0_1_88)">
<path d="M190.417 104.914L176.104 112.631C175.93 112.725 175.865 112.941 175.959 113.115L178.822 118.426C178.916 118.599 179.133 118.664 179.307 118.571L193.62 110.854C193.793 110.76 193.858 110.543 193.765 110.369L190.901 105.059C190.808 104.885 190.591 104.82 190.417 104.914Z" fill="white"/>
<path d="M182.328 91.2257L168.015 98.9428C167.841 99.0364 167.776 99.2532 167.87 99.4269L170.733 104.738C170.827 104.911 171.044 104.976 171.217 104.883L185.53 97.1655C185.704 97.0718 185.769 96.855 185.675 96.6813L182.812 91.3706C182.718 91.1969 182.502 91.132 182.328 91.2257Z" fill="#474747"/>
<path d="M174.329 77.7639L160.016 85.481C159.842 85.5746 159.778 85.7914 159.871 85.9651L162.734 91.2758C162.828 91.4495 163.045 91.5144 163.219 91.4208L177.532 83.7037C177.705 83.61 177.77 83.3932 177.677 83.2195L174.813 77.9088C174.72 77.7351 174.503 77.6702 174.329 77.7639Z" fill="#FBBF24"/>
</g>
<path d="M199.417 116.775L178.906 124.98C178.581 125.069 178.236 125.047 177.925 124.919C177.614 124.79 177.355 124.562 177.187 124.27L151.163 81.3834C151.039 81.168 150.963 80.9281 150.942 80.6805C150.921 80.433 150.954 80.1838 151.039 79.9504C151.196 79.4917 151.776 79.2659 152.233 79.1068L172.816 72.0018C173.14 71.9098 173.485 71.9294 173.796 72.0574C174.107 72.1855 174.366 72.4145 174.531 72.7077L199.618 113.91C200.143 114.812 200.887 116.159 199.421 116.776L199.417 116.775Z" fill="url(#paint3_linear_1_88)"/>
<path d="M199.416 116.775L178.906 124.98C178.581 125.069 178.236 125.047 177.925 124.919C177.614 124.79 177.355 124.562 177.187 124.27L151.741 82.1521C151.386 81.6658 151.178 81.0879 151.141 80.4869C151.187 80.2657 151.292 80.0609 151.443 79.8931C151.595 79.7253 151.788 79.6006 152.003 79.5315L172.816 72.0018C173.14 71.9094 173.487 71.9291 173.798 72.0579C174.11 72.1867 174.369 72.417 174.534 72.7114L199.618 113.91C200.143 114.812 200.887 116.159 199.421 116.776L199.416 116.775Z" stroke="black" stroke-width="0.501274" stroke-miterlimit="10"/>
<path d="M168.657 75.9356L160.559 78.934C160.226 79.0526 159.862 79.0556 159.527 78.9424C159.192 78.8292 158.905 78.6064 158.712 78.31L157.95 77.2155L168.493 73.3168L169.122 74.198C169.228 74.3359 169.301 74.4963 169.335 74.6669C169.369 74.8374 169.363 75.0135 169.318 75.1815C169.273 75.3495 169.19 75.5049 169.076 75.6357C168.961 75.7665 168.818 75.8691 168.657 75.9356Z" fill="black"/>
<path d="M161.49 77.0488L166.616 75.151" stroke="#DBDCFF" stroke-width="0.313534" stroke-miterlimit="10" stroke-linecap="round"/>
<path d="M165.977 113.354C165.682 110.348 165.696 107.321 166.02 104.318C167.006 101.027 167.562 96.8425 163.785 97.7307C160.797 100.528 161.058 104.667 161.12 106.661C161.209 110.123 161.551 113.574 162.145 116.986C164.716 124.057 175.529 128.385 179.488 128.507C170.058 125.568 167.484 118.226 165.977 113.355L165.977 113.354Z" fill="#F2AB9A"/>
<path d="M159.626 113.292C159.626 113.292 155.299 106.787 160.971 97.1942C162.256 95.0377 168.292 94.543 167.626 101.326C166.672 105.517 165.639 109.916 165.922 113.031C166.44 115.536 161.953 117.254 159.625 113.293L159.626 113.292Z" fill="#F3AC9A"/>
<path d="M158.437 106.629C158.437 106.629 153.212 89.2128 156.807 87.0021C159.064 86.323 161.444 91.788 161.272 98.0146C160.344 102.579 158.566 104.17 158.437 106.629Z" fill="#ED9787"/>
<path d="M355.765 182.191C355.765 182.191 381.665 167.565 389.534 179.369C390.517 181.336 389.281 191.377 341.993 199.897C343.96 196.95 355.765 182.191 355.765 182.191Z" fill="#0FAC50"/>
<path d="M377.355 233.107C374.322 242.4 368.442 243.702 366.179 243.62C363.839 243.633 356.562 242.845 354.149 232.207C349.517 212.28 335.428 168.836 335.428 168.836C330.105 152.306 344.043 129.111 353.959 142.906C374.742 178.872 378.358 230.357 377.815 233.108L377.355 233.107Z" fill="url(#paint4_linear_1_88)"/>
<path d="M296.799 123.898C296.799 123.898 290.582 116.019 269.925 122.904C262.056 124.871 253.321 127.517 243.48 124.565C245.447 125.549 252.958 129.598 251.962 150.438C251.219 169.371 252.248 183.544 251.882 195.288C256.124 190.479 249.88 197.811 241.954 204.193C232.118 213.046 226.104 222.822 227.626 239.959C231.839 234.84 238.446 227.172 260.087 237.992C270.557 242.266 279.735 249.189 286.72 258.082C293.606 266.936 299.42 269.653 307.019 274.729C314.889 279.648 319.004 284.672 319.004 289.59C322.999 288.072 330.108 283.479 336.011 269.708C339.946 260.855 348.462 235.814 346.763 202.864C358.566 194.995 361.18 192.272 372.398 183.973C377.623 181.053 385.653 174.451 389.587 179.369C382.702 168.549 378.98 161.373 352.07 140.089C348.135 136.154 345.833 132.141 342.613 127.461C340.838 124.45 339.296 122.067 336.972 120.241C334.647 118.414 336.272 129.812 322.06 134.708C314.19 137.662 300.42 140.61 294.519 135.691C293.532 133.724 291.88 130.785 296.798 123.898H296.799Z" fill="#2ED573"/>
<path d="M271.883 172.032C271.883 172.032 263.03 198.089 248.217 207.129C242.561 211.467 235.783 214.349 234.445 229.989C237.081 228.671 258.928 218.304 295.436 259.932C299.706 264.899 300.148 265.017 306.926 268.785C301.181 262.411 298.702 257.71 288.394 242.856C278.085 228.003 261.077 211.212 253.543 214.724C265.298 201.14 270.01 187.89 271.888 172.03L271.883 172.032Z" fill="#3BE280"/>
<path d="M337.096 126.53C339.756 129.428 342.025 132.66 343.846 136.146C345.351 138.654 348.643 142.829 357.078 151.074C365.513 159.318 384.238 175.25 378.935 176.764C374.043 178.421 369.633 181.252 366.089 185.009C369.109 180.494 375.174 172.339 365.131 164.302C355.826 156.216 344.878 147.59 337.097 126.529L337.096 126.53Z" fill="#3BE280"/>
<path d="M373.594 291.675C373.765 295.302 374.042 298.574 374.372 301.587C375.392 310.885 376.922 317.666 377.426 324.631C378.992 333.693 378.623 347.766 373.622 345.829C369.641 343.795 371.349 339.023 371.45 338.746C371.14 338.919 364.707 342.484 365.831 333.176C366.615 328.846 367.753 324.588 369.233 320.443C370.712 316.299 368.254 309.415 365.069 307.203C361.884 304.99 357.509 306.64 357.7 313.138C358.796 319.48 360.324 322.955 355.793 323.738C352.938 323.603 351.859 322.553 351.349 314.236C350.839 305.919 348.529 297.922 353.9 285.786C354.673 284.278 355.066 282.604 355.044 280.91C355.114 280.672 355.002 272.365 363.651 272.113C371.192 272.702 371.604 280.398 371.604 280.398C371.604 280.398 372.497 283.301 373.594 291.675Z" fill="#F3AC9A"/>
<path d="M361.321 287.824C357.201 287.094 355.268 283.785 354.946 279.764C354.932 278.619 354.213 234.671 354.264 232.529C355 222.219 363.64 220.961 366.232 221.01C368.778 220.906 377.377 222.706 377.733 233.033C377.483 236.499 374.274 270.891 371.307 280.608C370.183 285.979 366.33 288.676 361.321 287.824Z" fill="url(#paint5_linear_1_88)"/>
<path d="M364.222 291.046C368.605 290.543 371.751 286.583 371.248 282.2C370.746 277.817 366.786 274.672 362.403 275.174C358.02 275.676 354.874 279.636 355.377 284.019C355.879 288.402 359.839 291.548 364.222 291.046Z" fill="#F3AC9A"/>
<path d="M283.703 37.7677C283.703 37.7677 270.918 45.6375 270.918 73.1799C270.001 77.5265 266.676 89.9526 270.672 91.689C272.639 92.6725 273.377 94.3287 273.868 96.7875C274.065 97.771 276.823 110.559 285.672 113.51C287.147 114.001 296.492 116.464 310.259 103.673C315.178 98.7544 318.128 95.804 320.096 90.8856C331.408 96.2957 334.359 73.6717 330.425 59.9C327.47 51.0467 307.309 24.9805 283.7 37.7677H283.703Z" fill="#F3AC9A"/>
<path d="M270.901 73.3162C270.424 78.9389 266.281 85.2286 265.762 87.5158C265.813 88.9882 269.169 90.9218 271.789 92.3198C275.136 87.9647 274.005 78.4624 270.901 73.3162Z" fill="#F3AC9A"/>
<path d="M270.901 73.3162C270.424 78.9389 266.281 85.2286 265.762 87.5158C265.813 88.9882 269.169 90.9218 271.789 92.3198" fill="#F3AC9A"/>
<path d="M272.411 74.1434C272.411 65.4836 274.412 58.8841 276.484 58.7545C278.556 58.6249 280.859 65.7113 280.859 74.3693C280.859 83.0272 278.858 90.2099 276.484 90.0603C274.11 89.9107 272.411 82.8033 272.411 74.1453V74.1434Z" stroke="black" stroke-width="1.27701" stroke-miterlimit="2"/>
<path d="M281.053 73.2457L314.688 77.6066" stroke="#0A0A0A" stroke-width="1.0359" stroke-miterlimit="10" stroke-linecap="round"/>
<path d="M285.176 99.2462L288.13 96.2919L285.176 99.2462Z" fill="white"/>
<path d="M285.176 99.2462L288.13 96.2919" stroke="#0A0A0A" stroke-width="1.46856" stroke-linecap="round" stroke-linejoin="round"/>
<path d="M278.517 74.5837C278.517 79.1581 274.188 79.1485 274.188 74.5837C274.208 72.6987 275.171 71.1872 276.353 71.1872C277.534 71.1872 278.497 72.6987 278.517 74.5837Z" fill="#0A0A0A"/>
<path d="M284.743 48.8929C284.743 48.8929 257.899 48.7748 256.153 27.6069C256.064 21.6259 257.334 19.8257 258.307 19.9734C259.28 20.1211 259.29 20.1211 259.812 23.1898C260.333 26.2584 262.064 34.4818 282.436 37.6C284.348 41.0369 285.152 44.9807 284.737 48.892L284.743 48.8929Z" fill="#0A0A0A"/>
<path d="M280.462 48.548C280.462 48.548 256.854 41.6626 264.723 17.0706C267.678 8.21732 275.544 -2.60295 293.249 1.33195C303.086 4.28623 305.053 9.20081 308.988 18.0541C310.955 21.989 310.955 23.956 314.89 25.923C318.825 27.8899 323.743 32.8083 325.71 44.6121C326.694 46.5791 329.645 46.5791 333.579 46.5791C341.417 46.5276 357.074 52.3275 343.416 75.105C337.137 86.7401 327.977 83.4837 327.493 97.8815C327.629 99.6655 324.957 102.066 323.129 98.318C321.033 90.2004 326.567 90.128 328.227 86.6152C330.37 82.0799 324.726 72.1526 317.839 78.0545C315.872 80.0215 311.937 81.9894 312.921 73.1361C313.904 64.2828 316.856 55.4305 304.068 58.3809C296.198 60.3479 289.312 61.3352 285.378 57.3974C284.395 56.4139 281.444 52.479 285.378 52.479C286.364 52.4867 290.299 51.5022 280.462 48.548Z" fill="#0A0A0A"/>
<path d="M325.016 46.621C325.016 46.621 330.918 29.8988 321.081 18.0951C325.016 20.062 332.885 31.8668 328.95 48.5908L325.016 46.621Z" fill="#0A0A0A"/>
<path d="M325.016 45.6375C325.016 45.6375 337.804 35.8007 346.657 45.6375C342.722 44.654 332.885 43.6705 328.951 48.5918C327.559 47.7199 326.242 46.7316 325.016 45.6375Z" fill="#0A0A0A"/>
<path d="M268.427 14.1992C268.427 14.1992 277.417 -2.34566 294.671 3.97935C298.606 5.94633 302.462 7.83516 305.974 20.2688C306.588 22.2287 307.652 24.0182 309.079 25.4952C310.507 26.9722 312.259 28.0959 314.197 28.7772C312.005 28.2168 305.846 26.2098 301.458 14.9073C297.809 5.60229 290.404 4.47109 284.304 4.96284C278.469 5.47459 274.197 7.42251 268.427 14.1992Z" fill="#E2E2E2"/>
<path d="M332.86 48.2983C332.86 48.2983 341.64 48.1753 345.093 53.1919C346.598 55.1589 348.047 58.7278 346.076 66.9636C346.779 56.9066 342.282 50.7122 332.86 48.2983Z" fill="#E2E2E2"/>
<path d="M73.3245 175.136H12.393C7.12979 175.136 2.8631 179.403 2.8631 184.666V227.019C2.8631 232.282 7.12979 236.549 12.393 236.549H73.3245C78.5877 236.549 82.8544 232.282 82.8544 227.019V184.666C82.8544 179.403 78.5877 175.136 73.3245 175.136Z" fill="#0EA5E9"/>
<path d="M73.3245 173.706H12.393C6.34029 173.706 1.43359 178.613 1.43359 184.666V227.019C1.43359 233.071 6.34029 237.978 12.393 237.978H73.3245C79.3772 237.978 84.2839 233.071 84.2839 227.019V184.666C84.2839 178.613 79.3772 173.706 73.3245 173.706Z" stroke="#3F3F46" stroke-width="2.85898" stroke-linecap="round"/>
<path d="M82.8544 226.619V221.998H2.86307V226.619H82.8544Z" fill="white"/>
<path d="M38.0352 238.613H34.8598V251.514H38.0352V238.613Z" fill="#3F3F46"/>
<path d="M50.8577 238.613H47.6823V251.514H50.8577V238.613Z" fill="#3F3F46"/>
<path d="M61.1395 252.805C62.0163 252.805 62.7272 252.094 62.7272 251.217C62.7272 250.34 62.0163 249.629 61.1395 249.629H24.577C23.7001 249.629 22.9893 250.34 22.9893 251.217C22.9893 252.094 23.7001 252.805 24.577 252.805H61.1395Z" fill="#3F3F46"/>
<path d="M61.1395 252.328C61.7532 252.328 62.2507 251.831 62.2507 251.217C62.2507 250.603 61.7532 250.106 61.1395 250.106H24.577C23.9633 250.106 23.4658 250.603 23.4658 251.217C23.4658 251.831 23.9633 252.328 24.577 252.328H61.1395Z" stroke="#3F3F46" stroke-width="0.952992" stroke-linecap="round" stroke-linejoin="round"/>
</g>
<defs>
<linearGradient id="paint0_linear_1_88" x1="236.728" y1="221.814" x2="236.094" y2="347.08" gradientUnits="userSpaceOnUse">
<stop stop-color="#0EA5E9"/>
<stop offset="1" stop-color="#0284C7"/>
</linearGradient>
<linearGradient id="paint1_linear_1_88" x1="282.614" y1="91.7789" x2="322.358" y2="149.738" gradientUnits="userSpaceOnUse">
<stop stop-color="#E47468"/>
<stop offset="1" stop-color="#F0A291"/>
</linearGradient>
<linearGradient id="paint2_linear_1_88" x1="243.538" y1="193.277" x2="178.457" y2="157.219" gradientUnits="userSpaceOnUse">
<stop stop-color="#ED9888"/>
<stop offset="1" stop-color="#F3AC9A"/>
</linearGradient>
<linearGradient id="paint3_linear_1_88" x1="159.461" y1="70.6657" x2="197.302" y2="121.817" gradientUnits="userSpaceOnUse">
<stop stop-color="#0E1420" stop-opacity="0.2"/>
<stop offset="0.53" stop-color="#151D2E" stop-opacity="0"/>
<stop offset="1" stop-color="#0E1420" stop-opacity="0.2"/>
</linearGradient>
<linearGradient id="paint4_linear_1_88" x1="343.092" y1="146.291" x2="395.058" y2="186.357" gradientUnits="userSpaceOnUse">
<stop stop-color="#E47468"/>
<stop offset="1" stop-color="#F0A291"/>
</linearGradient>
<linearGradient id="paint5_linear_1_88" x1="365.178" y1="222.558" x2="393.024" y2="261.023" gradientUnits="userSpaceOnUse">
<stop stop-color="#F0A291"/>
<stop offset="1" stop-color="#F3AC9A"/>
</linearGradient>
<clipPath id="clip0_1_88">
<rect width="549.992" height="583.58" fill="white" transform="translate(0.00408936 0.5)"/>
</clipPath>
</defs>
</svg>
