<svg  viewBox="0 0 550 584" fill="none" xmlns="http://www.w3.org/2000/svg">
<g clip-path="url(#clip0_1_84)">
<path d="M335.003 532.662C330.987 539.618 340.952 552.889 357.259 562.304C373.567 571.719 390.042 573.713 394.058 566.757C398.074 559.802 388.109 546.531 371.802 537.115C355.494 527.7 339.019 525.707 335.003 532.662Z" fill="#4E81FB"/>
<path d="M335.829 533.139C332.076 539.639 341.884 552.327 357.736 561.479C373.587 570.631 389.48 572.781 393.233 566.281C396.985 559.781 387.177 547.093 371.325 537.941C355.474 528.789 339.581 526.639 335.829 533.139Z" stroke="#4E81FB" stroke-width="1.90598"/>
<path d="M364.53 582.628C371.912 582.628 377.896 567.89 377.896 549.711C377.896 531.531 371.912 516.793 364.53 516.793C357.149 516.793 351.165 531.531 351.165 549.711C351.165 567.89 357.149 582.628 364.53 582.628Z" stroke="white" stroke-width="1.90598"/>
<path d="M335.828 566.281C339.58 572.781 355.473 570.631 371.324 561.479C387.176 552.327 396.984 539.639 393.232 533.139C389.479 526.639 373.586 528.789 357.735 537.941C341.883 547.093 332.075 559.781 335.828 566.281Z" stroke="white" stroke-width="1.90598"/>
<path d="M364.53 555.493C367.876 555.493 370.588 552.903 370.588 549.71C370.588 546.516 367.876 543.927 364.53 543.927C361.184 543.927 358.472 546.516 358.472 549.71C358.472 552.903 361.184 555.493 364.53 555.493Z" fill="white"/>
<path d="M535.386 263.482V292.381C535.386 292.381 533.834 300.906 505.357 301.099C476.881 301.291 473.971 292.381 473.971 292.381V264.967" fill="#64748B"/>
<path d="M535.386 263.482V292.381C535.386 292.381 533.834 300.906 505.357 301.099C476.881 301.291 473.971 292.381 473.971 292.381V264.967" stroke="#64748B" stroke-width="1.90598"/>
<path d="M502.398 243.013L542.24 259.107L504.042 279.025L465.82 259.891L502.398 243.013Z" fill="#3F3F46" stroke="#3F3F46" stroke-width="3.81197" stroke-linecap="round" stroke-linejoin="round"/>
<path d="M545.217 301.192V260.142H506.676" stroke="#FBBF24" stroke-width="2.85898" stroke-linecap="round" stroke-linejoin="round"/>
<path d="M541.704 305.375C541.41 306.742 540.97 319.052 540.97 319.052H549.996L549.114 305.375C549.114 305.375 545.636 297.907 541.704 305.375Z" fill="#FBBF24"/>
<path d="M412.83 110.309L424.076 90.1654C424.076 90.1654 436.693 85.5292 433.271 98.831C415.793 109.168 412.83 110.309 412.83 110.309Z" fill="#FBBF24" stroke="#FBBF24" stroke-width="1.90598"/>
<path d="M496.471 27.1651C496.471 27.1651 451.548 22.1553 426.498 83.2773C439.691 96.9709 440.191 97.3053 440.191 97.3053C440.191 97.3053 492.797 76.7646 496.471 32.844C496.47 28.2182 496.471 27.1651 496.471 27.1651Z" fill="#F43F5E" stroke="#F43F5E" stroke-width="1.90598"/>
<path d="M465.893 67.8359C471.597 67.8359 476.22 63.2125 476.22 57.5093C476.22 51.806 471.597 47.1826 465.893 47.1826C460.19 47.1826 455.567 51.806 455.567 57.5093C455.567 63.2125 460.19 67.8359 465.893 67.8359Z" fill="#1C1C28"/>
<path d="M465.893 65.9299C470.544 65.9299 474.314 62.1599 474.314 57.5093C474.314 52.8587 470.544 49.0886 465.893 49.0886C461.243 49.0886 457.473 52.8587 457.473 57.5093C457.473 62.1599 461.243 65.9299 465.893 65.9299Z" stroke="#FBBF24" stroke-width="3.81197"/>
<path d="M467.927 81.0996L468.717 97.5035L455.375 111.239L450.632 92.2659L431.166 72.7L412.296 68.4515L425.734 54.7161L441.94 55.2106" fill="#F43F5E"/>
<path d="M451.918 71.5154L435.367 88.2976" stroke="#1C1C28" stroke-width="3.81197" stroke-linecap="round"/>
<path d="M118.839 413.481L88.562 399.546L58.4097 413.481V442.999C58.4097 442.999 57.5232 450.854 66.5185 458.708C88.5535 475.847 88.562 475.811 88.562 475.811L113.139 456.808C113.139 456.808 118.839 452.628 118.839 442.999V413.481Z" fill="#4A4B6D"/>
<path d="M140.758 416.34L110.481 402.405L80.3285 416.34V445.858C80.3285 445.858 79.442 453.713 88.4373 461.567C110.472 478.706 110.481 478.67 110.481 478.67L135.058 459.667C135.058 459.667 140.758 455.487 140.758 445.858V416.34Z" fill="#2ED573" stroke="#4A4B6D" stroke-width="1.90598"/>
<path d="M97.1466 441.194L106.016 449.405L123.916 431.669" stroke="white" stroke-width="5.71795" stroke-linecap="round"/>
<path d="M337.621 394.821C337.621 394.821 343.602 392.224 347.319 396.041C347.319 396.041 348.735 397.831 350.274 397.024C352.723 396.178 354.513 397.119 356.175 401.559C360.11 406.477 370.123 418.665 359.303 431.452C354.218 433.193 348.306 433.036 347.322 429.101C346.781 426.554 345.748 425.796 343.387 426.147C341.42 426.442 338.469 429.101 331.583 417.293C324.698 405.486 337.621 394.821 337.621 394.821Z" fill="white" stroke="#040505" stroke-width="0.932026" stroke-miterlimit="10"/>
<path d="M181.62 317.668C181.62 317.668 155.061 346.194 239.657 393.41C259.33 405.214 317.366 423.906 317.366 423.906C317.366 423.906 329.169 432.759 339.498 418.496C344.416 409.643 348.843 390.462 336.055 381.609C327.202 376.69 315.86 372.224 306.023 364.359C294.672 356.707 261.759 335.833 238.151 327.964C216.54 317.182 201.225 297.401 181.621 317.671L181.62 317.668Z" fill="#14172D"/>
<path d="M365.497 395.166C365.497 395.166 372.382 393.199 375.333 397.133C383.837 410.383 390.769 424.578 395.99 439.43C402.876 460.087 398.945 467.956 390.089 468.94C373.967 470.73 365.497 395.166 365.497 395.166Z" fill="#AEC6F2"/>
<path d="M359.596 396.149C359.596 396.149 352.71 397.133 354.677 402.051C355.661 405.005 363.531 408.937 360.579 422.708C358.612 427.627 353.694 429.594 359.596 437.463C361.563 439.43 365.498 444.349 371.399 456.153C375.334 465.006 381.236 473.858 394.023 467.956C395.99 466.973 399.925 463.038 393.04 441.397C385.171 419.757 378.285 405.986 370.416 396.149C368.448 394.183 366.482 394.183 359.596 396.149Z" fill="#2D6EF5"/>
<path d="M369.924 454.677L375.826 450.742" stroke="white" stroke-width="1.0359" stroke-miterlimit="10" stroke-linecap="round"/>
<path d="M366.973 448.774L374.291 443.237" stroke="white" stroke-width="1.0359" stroke-miterlimit="10" stroke-linecap="round"/>
<path d="M363.038 444.84L371.891 436.971" stroke="white" stroke-width="1.0359" stroke-miterlimit="10" stroke-linecap="round"/>
<path d="M365.497 394.181C365.497 394.181 369.923 391.723 380.193 411.593C385.244 421.036 401.401 452.709 395.499 467.465" stroke="white" stroke-width="0.518428" stroke-linecap="round" stroke-linejoin="round"/>
<path d="M236.151 226.615C236.151 226.615 199.439 280.348 182.545 314.694C179.561 320.581 177.461 326.128 178.535 329.429C179.988 333.863 190.596 362.724 232.063 333.428C239.979 324.122 259.852 297.872 259.852 297.872L294.548 244.929C294.548 244.929 272.641 208.11 236.151 226.615Z" fill="url(#paint0_linear_1_84)"/>
<path d="M231.274 241.701C231.274 241.701 193.955 301.717 186.835 324.311C191.639 315.011 233.366 241.969 244.543 235.547C238.295 235.118 235.514 236.008 231.274 241.701Z" fill="#1E232E"/>
<path d="M240.715 487.817C240.715 487.817 243.922 492.528 240.905 494.319C237.889 496.11 238.279 498.893 239.115 500.162C240.344 502.129 240.157 503.116 239.429 504.038C238.701 504.959 237.009 506.992 237.993 514.858C238.976 521.743 236.754 526.851 252.597 526.311C268.439 525.771 260.387 519.12 271.208 497.479C272.309 492.83 268.349 492.914 268.349 492.914C268.349 492.914 269.338 487.542 263.509 488.477C256.624 487.494 240.718 487.819 240.718 487.819L240.715 487.817Z" fill="white" stroke="#040505" stroke-width="0.932026" stroke-miterlimit="10"/>
<path d="M275.837 510.795C277.678 514.956 278.077 519.613 276.968 524.026C274.014 532.879 264.181 548.613 245.491 565.34C233.687 576.16 223.309 578.275 216.699 567.878C226.093 551.991 275.837 510.793 275.837 510.793V510.795Z" fill="#AEC6F2"/>
<path d="M273.033 497.467C275.588 503.345 276.605 509.776 275.988 516.156C274.021 525.993 269.102 535.829 248.446 557.47C231.724 574.192 225.822 573.209 218.937 570.257C215.002 567.303 215.002 563.372 220.904 549.6C226.806 535.828 230.741 523.041 234.676 516.156C236.643 511.237 243.529 508.287 248.447 514.189C251.402 516.156 256.317 520.091 263.202 508.287C268.115 499.434 270.684 493.263 273.033 497.467Z" fill="#2D6EF5"/>
<path d="M276.477 509.761C276.477 509.761 277.46 528.45 250.409 555.505C240.573 565.342 228.277 577.805 217.457 569.768" stroke="white" stroke-width="0.518428" stroke-miterlimit="10" stroke-linecap="round"/>
<path d="M224.343 538.287C224.343 538.287 230.245 537.304 239.098 542.222" stroke="white" stroke-width="1.0359" stroke-miterlimit="10" stroke-linecap="round"/>
<path d="M227.294 529.435C227.294 529.435 235.163 528.451 244.999 533.37" stroke="white" stroke-width="1.0359" stroke-miterlimit="10" stroke-linecap="round"/>
<path d="M229.979 522.294C229.979 522.294 239.58 520.966 245.236 525.117" stroke="white" stroke-width="1.0359" stroke-miterlimit="10" stroke-linecap="round"/>
<path d="M320.741 269.894C320.741 269.894 322.708 294.481 303.036 353.505C298.117 368.26 295.167 372.194 295.167 403.671C294.183 420.393 295.167 435.149 276.478 467.609C270.378 478.075 269.1 490.725 263.199 491.709C257.297 492.692 240.083 495.152 237.131 486.299C234.18 477.445 236.64 462.199 236.64 445.477C236.64 432.69 235.164 434.165 234.18 416.46C233.196 398.754 231.226 382.032 243.033 339.734C249.919 314.159 248.935 315.147 249.919 279.731C250.902 275.796 242.05 249.235 253.854 226.613C277.456 238.417 303.028 254.154 320.741 269.894Z" fill="#0E1021"/>
<path d="M252.977 300.085C252.977 300.085 251.993 326.899 243.937 353.834C238.094 376.064 234.395 392.01 239.097 438.851C239.927 449.638 239.802 460.478 238.724 471.243C238.35 476.515 237.848 482.488 243.642 487.189C242.894 484.739 240.574 486.884 242.452 462.961C244.33 439.038 242.009 429.683 242.009 412.726C242.009 395.768 242.264 386.294 248.541 348.303C252.357 328.464 254.492 311.385 252.977 300.082V300.085Z" fill="#1E232E"/>
<path d="M336.973 119.741C336.973 119.741 333.038 116.786 317.299 124.659C321.234 128.594 335.988 137.446 335.988 137.446C335.988 137.446 344.841 125.642 336.973 119.741Z" fill="#3B286A"/>
<path d="M296.15 107.445C296.15 107.445 303.036 116.298 296.15 124.167C291.232 123.184 275.28 131.709 272.1 135.657C269.146 137.623 266.641 151.71 295.163 157.612C310.902 159.579 344.346 157.612 349.264 139.906C343.362 132.037 332.749 126.892 330.575 125.151C325.657 121.216 321.722 115.314 323.69 85.8045C315.82 84.821 285.327 90.7229 285.327 90.7229L296.15 107.445Z" fill="url(#paint1_linear_1_84)"/>
<path d="M243.48 124.065C238.655 130.397 237.218 146.169 242.241 163.487C253.246 160.818 257.346 150.533 257.346 150.533C257.346 150.533 254.297 127.017 243.476 124.065H243.48Z" fill="#3B286A"/>
<path d="M275.902 149.423C261.671 186.297 246.801 203.944 231.293 202.364C226.911 201.661 222.788 197.308 221.496 185.854C220.71 178.888 221.785 175.607 233.014 167.883C236.752 164.604 238.307 163.287 250.49 148.096C257.008 136.96 264.216 134.015 264.216 134.015C275.071 129.105 276.698 144.139 275.902 149.423Z" fill="#ED9888"/>
<path d="M247.521 182.625C248.819 194.033 237.245 200.646 232.681 202.163C232.056 202.163 229.839 203.678 223.711 197.113C207.617 179.791 193.032 152.55 186.988 129.581C186.259 126.472 184.388 123.75 181.747 121.955C167.944 111.496 199.472 95.0618 202.252 111.956C203.307 118.367 203.632 121.037 206.292 125.319C228.729 154.567 234.941 163.215 238.113 170.265C238.174 171.077 246.68 166.894 247.521 182.625Z" fill="url(#paint2_linear_1_84)"/>
<path d="M201.551 119.55C201.551 119.55 202.4 108.725 200.467 103.743C199.974 100.89 197.75 97.6711 195.859 95.0122C193.968 92.3534 188.698 85.8633 187.471 81.3381C186.71 80.0964 182.177 79.8714 183.853 87.2412C186.427 94.4078 189.674 99.7296 189.584 102.993C189.494 106.257 186.811 118.465 190.412 123.582C193.618 128.013 197.384 126.486 198.992 126.035C200.6 125.584 200.882 121.557 201.551 119.55Z" fill="#F2AB9A"/>
<path d="M202.285 125.388C202.285 125.388 195.48 134.416 182.465 131.951C172.183 129.776 168.837 124.585 168.837 124.585C168.837 124.585 159.005 109.672 171.882 100.063C175.244 97.6074 187.199 92.1681 193.178 103.931C196.214 106.59 198.611 109.901 200.188 113.617C201.765 117.332 202.481 121.356 202.285 125.388Z" fill="#F3AC9A"/>
<path d="M151.481 78.7426C151.481 78.7426 149.26 79.9945 150.924 82.6041C152.143 84.7031 175.939 125.212 175.939 125.212C176.162 125.687 176.554 126.062 177.039 126.263C177.523 126.464 178.066 126.477 178.56 126.3C180.417 125.746 198.923 118.174 198.923 118.174C199.289 118.048 199.622 117.843 199.9 117.573C200.177 117.303 200.392 116.975 200.527 116.613C200.663 116.251 200.717 115.863 200.685 115.477C200.653 115.091 200.536 114.717 200.342 114.382L174.314 72.3641C174.314 72.3641 173.559 70.9735 171.194 72.0859C169.022 72.7624 151.473 78.7428 151.473 78.7428L151.481 78.7426Z" fill="#2C2C2C"/>
<path d="M199.417 116.275L178.906 124.48C178.581 124.569 178.236 124.547 177.925 124.419C177.614 124.29 177.355 124.062 177.187 123.77L151.258 80.7994C151.112 80.5899 151.023 80.3454 151.002 80.0908C150.98 79.8361 151.026 79.5803 151.135 79.3492C151.25 79.1468 151.408 78.972 151.597 78.8369C151.787 78.7018 152.003 78.6096 152.232 78.5668L172.816 71.5018C173.14 71.4093 173.487 71.4291 173.798 71.5579C174.11 71.6867 174.369 71.9169 174.534 72.2114L199.618 113.41C200.143 114.312 200.887 115.659 199.421 116.276L199.417 116.275Z" fill="#191919"/>
<mask id="mask0_1_84" style="mask-type:luminance" maskUnits="userSpaceOnUse" x="150" y="71" width="48" height="51">
<path d="M197.559 113.05L175.245 121.569L150.29 80.3135C150.026 79.9079 172.492 71.4661 172.492 71.4661L197.559 113.05Z" fill="white"/>
</mask>
<g mask="url(#mask0_1_84)">
<path d="M190.417 104.414L176.104 112.131C175.93 112.225 175.865 112.441 175.959 112.615L178.822 117.926C178.916 118.099 179.133 118.164 179.307 118.071L193.62 110.354C193.793 110.26 193.858 110.043 193.765 109.869L190.901 104.559C190.808 104.385 190.591 104.32 190.417 104.414Z" fill="white"/>
<path d="M182.328 90.7257L168.015 98.4427C167.841 98.5364 167.776 98.7532 167.87 98.9269L170.733 104.238C170.827 104.411 171.044 104.476 171.217 104.383L185.53 96.6654C185.704 96.5718 185.769 96.355 185.675 96.1813L182.812 90.8706C182.718 90.6969 182.502 90.632 182.328 90.7257Z" fill="#474747"/>
<path d="M174.329 77.2639L160.016 84.981C159.842 85.0746 159.778 85.2914 159.871 85.4651L162.734 90.7758C162.828 90.9495 163.045 91.0144 163.219 90.9208L177.532 83.2037C177.705 83.11 177.77 82.8932 177.677 82.7195L174.813 77.4088C174.72 77.2351 174.503 77.1702 174.329 77.2639Z" fill="#FBBF24"/>
</g>
<path d="M199.417 116.275L178.906 124.48C178.581 124.569 178.236 124.547 177.925 124.419C177.614 124.29 177.355 124.062 177.187 123.77L151.163 80.8834C151.039 80.668 150.963 80.4281 150.942 80.1805C150.921 79.933 150.954 79.6837 151.039 79.4503C151.196 78.9917 151.776 78.7659 152.233 78.6068L172.816 71.5018C173.14 71.4098 173.485 71.4294 173.796 71.5574C174.107 71.6855 174.366 71.9145 174.531 72.2077L199.618 113.41C200.143 114.312 200.887 115.659 199.421 116.276L199.417 116.275Z" fill="url(#paint3_linear_1_84)"/>
<path d="M199.416 116.275L178.906 124.48C178.581 124.569 178.236 124.547 177.925 124.419C177.614 124.29 177.355 124.062 177.187 123.77L151.741 81.652C151.386 81.1658 151.178 80.5879 151.141 79.9868C151.187 79.7657 151.292 79.5609 151.443 79.3931C151.595 79.2253 151.788 79.1006 152.003 79.0315L172.816 71.5018C173.14 71.4093 173.487 71.4291 173.798 71.5579C174.11 71.6867 174.369 71.9169 174.534 72.2114L199.618 113.41C200.143 114.312 200.887 115.659 199.421 116.276L199.416 116.275Z" stroke="black" stroke-width="0.501274" stroke-miterlimit="10"/>
<path d="M168.657 75.4356L160.559 78.434C160.226 78.5526 159.862 78.5556 159.527 78.4423C159.192 78.3291 158.905 78.1064 158.712 77.81L157.95 76.7155L168.493 72.8168L169.122 73.698C169.228 73.8359 169.301 73.9963 169.335 74.1669C169.369 74.3374 169.363 74.5135 169.318 74.6815C169.273 74.8495 169.19 75.0049 169.076 75.1357C168.961 75.2664 168.818 75.3691 168.657 75.4356Z" fill="black"/>
<path d="M161.49 76.5488L166.616 74.651" stroke="#DBDCFF" stroke-width="0.313534" stroke-miterlimit="10" stroke-linecap="round"/>
<path d="M165.977 112.854C165.682 109.848 165.696 106.821 166.02 103.818C167.006 100.527 167.562 96.3425 163.785 97.2306C160.797 100.028 161.058 104.167 161.12 106.161C161.209 109.623 161.551 113.074 162.145 116.486C164.716 123.557 175.529 127.885 179.488 128.007C170.058 125.068 167.484 117.726 165.977 112.855L165.977 112.854Z" fill="#F2AB9A"/>
<path d="M159.626 112.792C159.626 112.792 155.299 106.287 160.971 96.6941C162.256 94.5377 168.292 94.043 167.626 100.826C166.672 105.017 165.639 109.416 165.922 112.531C166.44 115.036 161.953 116.754 159.625 112.793L159.626 112.792Z" fill="#F3AC9A"/>
<path d="M158.437 106.129C158.437 106.129 153.212 88.7128 156.807 86.5021C159.064 85.823 161.444 91.288 161.272 97.5145C160.344 102.079 158.566 103.67 158.437 106.129Z" fill="#ED9787"/>
<path d="M355.765 181.691C355.765 181.691 381.665 167.065 389.534 178.869C390.517 180.836 389.281 190.877 341.993 199.397C343.96 196.45 355.765 181.691 355.765 181.691Z" fill="#3B286A"/>
<path d="M377.355 232.607C374.322 241.9 368.442 243.202 366.179 243.12C363.839 243.133 356.562 242.345 354.149 231.707C349.517 211.78 335.428 168.336 335.428 168.336C330.105 151.806 344.043 128.611 353.959 142.406C374.742 178.372 378.358 229.857 377.815 232.608L377.355 232.607Z" fill="url(#paint4_linear_1_84)"/>
<path d="M296.799 123.398C296.799 123.398 290.582 115.519 269.925 122.404C262.056 124.371 253.321 127.017 243.48 124.065C245.447 125.049 252.958 129.098 251.962 149.938C251.219 168.871 252.248 183.044 251.882 194.788C256.124 189.979 249.88 197.311 241.954 203.693C232.118 212.546 226.104 222.322 227.626 239.459C231.839 234.34 238.446 226.672 260.087 237.492C270.557 241.766 279.735 248.689 286.72 257.582C293.606 266.436 299.42 269.153 307.019 274.229C314.889 279.148 319.004 284.172 319.004 289.09C322.999 287.572 330.108 282.979 336.011 269.208C339.946 260.355 348.462 235.314 346.763 202.364C358.566 194.495 361.18 191.772 372.398 183.473C377.623 180.553 385.653 173.951 389.587 178.869C382.702 168.049 378.98 160.873 352.07 139.589C348.135 135.654 345.833 131.641 342.613 126.961C340.838 123.95 339.296 121.567 336.972 119.741C334.647 117.914 336.272 129.312 322.06 134.208C314.19 137.162 300.42 140.11 294.519 135.191C293.532 133.224 291.88 130.285 296.798 123.398H296.799Z" fill="#5A4784"/>
<path d="M271.883 171.532C271.883 171.532 263.03 197.589 248.217 206.629C242.561 210.967 235.783 213.849 234.445 229.489C237.081 228.171 258.928 217.803 295.436 259.432C299.706 264.399 300.148 264.517 306.926 268.285C301.181 261.911 298.702 257.21 288.394 242.356C278.085 227.503 261.077 210.712 253.543 214.224C265.298 200.64 270.01 187.39 271.888 171.53L271.883 171.532Z" fill="#7657BC"/>
<path d="M337.096 126.03C339.756 128.928 342.025 132.16 343.846 135.646C345.351 138.154 348.643 142.329 357.078 150.574C365.513 158.818 384.238 174.75 378.935 176.264C374.043 177.921 369.633 180.752 366.089 184.509C369.109 179.994 375.174 171.839 365.131 163.802C355.826 155.716 344.878 147.09 337.097 126.029L337.096 126.03Z" fill="#7657BC"/>
<path d="M373.594 291.175C373.765 294.802 374.042 298.074 374.372 301.087C375.392 310.385 376.922 317.166 377.426 324.131C378.992 333.193 378.623 347.266 373.622 345.329C369.641 343.295 371.349 338.523 371.45 338.246C371.14 338.419 364.707 341.984 365.831 332.676C366.615 328.346 367.753 324.088 369.233 319.943C370.712 315.799 368.254 308.915 365.069 306.703C361.884 304.49 357.509 306.14 357.7 312.638C358.796 318.98 360.324 322.455 355.793 323.238C352.938 323.103 351.859 322.053 351.349 313.736C350.839 305.419 348.529 297.422 353.9 285.286C354.673 283.778 355.066 282.104 355.044 280.41C355.114 280.172 355.002 271.865 363.651 271.613C371.192 272.202 371.604 279.898 371.604 279.898C371.604 279.898 372.497 282.801 373.594 291.175Z" fill="#F3AC9A"/>
<path d="M361.321 287.324C357.201 286.594 355.268 283.285 354.946 279.264C354.932 278.12 354.213 234.171 354.264 232.029C355 221.719 363.64 220.461 366.232 220.51C368.778 220.406 377.377 222.206 377.733 232.533C377.483 235.999 374.274 270.391 371.307 280.108C370.183 285.479 366.33 288.176 361.321 287.324Z" fill="url(#paint5_linear_1_84)"/>
<path d="M364.222 290.546C368.605 290.043 371.751 286.083 371.248 281.7C370.746 277.317 366.786 274.172 362.403 274.674C358.02 275.176 354.874 279.136 355.377 283.519C355.879 287.902 359.839 291.048 364.222 290.546Z" fill="#F3AC9A"/>
<path d="M283.703 37.2677C283.703 37.2677 270.918 45.1375 270.918 72.6799C270.001 77.0265 266.676 89.4526 270.672 91.189C272.639 92.1725 273.377 93.8287 273.868 96.2875C274.065 97.271 276.823 110.059 285.672 113.01C287.147 113.501 296.492 115.964 310.259 103.173C315.178 98.2544 318.128 95.304 320.096 90.3856C331.408 95.7957 334.359 73.1717 330.425 59.4C327.47 50.5467 307.309 24.4805 283.7 37.2677H283.703Z" fill="#F3AC9A"/>
<path d="M270.901 72.8162C270.424 78.4389 266.281 84.7286 265.762 87.0158C265.813 88.4882 269.169 90.4218 271.789 91.8198C275.136 87.4647 274.005 77.9624 270.901 72.8162Z" fill="#F3AC9A"/>
<path d="M270.901 72.8162C270.424 78.4389 266.281 84.7286 265.762 87.0158C265.813 88.4882 269.169 90.4218 271.789 91.8198" fill="#F3AC9A"/>
<path d="M272.411 73.6434C272.411 64.9836 274.412 58.3841 276.484 58.2545C278.556 58.1249 280.859 65.2114 280.859 73.8693C280.859 82.5272 278.858 89.7099 276.484 89.5603C274.11 89.4107 272.411 82.3033 272.411 73.6453V73.6434Z" stroke="black" stroke-width="1.27701" stroke-miterlimit="2"/>
<path d="M281.053 72.7457L314.688 77.1066" stroke="#0A0A0A" stroke-width="1.0359" stroke-miterlimit="10" stroke-linecap="round"/>
<path d="M285.176 98.7462L288.13 95.7919L285.176 98.7462Z" fill="white"/>
<path d="M285.176 98.7462L288.13 95.7919" stroke="#0A0A0A" stroke-width="1.46856" stroke-linecap="round" stroke-linejoin="round"/>
<path d="M278.517 74.0837C278.517 78.6581 274.188 78.6485 274.188 74.0837C274.208 72.1987 275.171 70.6872 276.353 70.6872C277.534 70.6872 278.497 72.1987 278.517 74.0837Z" fill="#0A0A0A"/>
<path d="M284.743 48.3929C284.743 48.3929 257.899 48.2747 256.153 27.1069C256.064 21.1259 257.334 19.3257 258.307 19.4734C259.28 19.6211 259.29 19.6211 259.812 22.6898C260.333 25.7584 262.064 33.9818 282.436 37.1C284.348 40.5369 285.152 44.4807 284.737 48.392L284.743 48.3929Z" fill="#805707"/>
<path d="M280.462 48.048C280.462 48.048 256.854 41.1626 264.723 16.5706C267.678 7.71732 275.544 -3.10295 293.249 0.831953C303.086 3.78623 305.053 8.70081 308.988 17.5541C310.955 21.489 310.955 23.456 314.89 25.423C318.825 27.3899 323.743 32.3083 325.71 44.1121C326.694 46.0791 329.645 46.0791 333.579 46.0791C341.417 46.0276 357.074 51.8275 343.416 74.605C337.137 86.2401 327.977 82.9837 327.493 97.3815C327.629 99.1655 324.957 101.566 323.129 97.818C321.033 89.7004 326.567 89.628 328.227 86.1152C330.37 81.5799 324.726 71.6526 317.839 77.5545C315.872 79.5215 311.937 81.4894 312.921 72.6361C313.904 63.7828 316.856 54.9305 304.068 57.8809C296.198 59.8479 289.312 60.8352 285.378 56.8974C284.395 55.9139 281.444 51.979 285.378 51.979C286.364 51.9867 290.299 51.0022 280.462 48.048Z" fill="url(#paint6_linear_1_84)"/>
<path d="M325.016 46.121C325.016 46.121 330.918 29.3988 321.081 17.5951C325.016 19.5621 332.885 31.3668 328.95 48.0908L325.016 46.121Z" fill="#805707"/>
<path d="M325.016 45.1375C325.016 45.1375 337.804 35.3007 346.657 45.1375C342.722 44.154 332.885 43.1705 328.951 48.0918C327.559 47.2199 326.242 46.2316 325.016 45.1375Z" fill="#805707"/>
<path d="M268.427 13.6993C268.427 13.6993 277.417 -2.84564 294.671 3.47936C298.606 5.44634 302.462 7.33517 305.974 19.7689C306.588 21.7288 307.652 23.5183 309.079 24.9952C310.507 26.4722 312.259 27.5959 314.197 28.2772C312.005 27.7168 305.846 25.7098 301.458 14.4073C297.809 5.10231 290.404 3.97111 284.304 4.46285C278.469 4.97461 274.197 6.92252 268.427 13.6993Z" fill="#C78F21"/>
<path d="M332.86 47.7983C332.86 47.7983 341.64 47.6753 345.093 52.6919C346.598 54.6589 348.047 58.2278 346.076 66.4636C346.779 56.4066 342.282 50.2122 332.86 47.7983Z" fill="#C78F21"/>
<path d="M73.3245 174.636H12.393C7.12979 174.636 2.8631 178.903 2.8631 184.166V226.519C2.8631 231.782 7.12979 236.049 12.393 236.049H73.3245C78.5877 236.049 82.8544 231.782 82.8544 226.519V184.166C82.8544 178.903 78.5877 174.636 73.3245 174.636Z" fill="#0EA5E9"/>
<path d="M73.3245 173.206H12.393C6.34029 173.206 1.43359 178.113 1.43359 184.166V226.519C1.43359 232.571 6.34029 237.478 12.393 237.478H73.3245C79.3772 237.478 84.2839 232.571 84.2839 226.519V184.166C84.2839 178.113 79.3772 173.206 73.3245 173.206Z" stroke="#4A4B6D" stroke-width="2.85898" stroke-linecap="round"/>
<path d="M82.8544 226.119V221.498H2.86307V226.119H82.8544Z" fill="white"/>
<path d="M38.0352 238.113H34.8598V251.014H38.0352V238.113Z" fill="#4A4B6D"/>
<path d="M50.8577 238.113H47.6823V251.014H50.8577V238.113Z" fill="#4A4B6D"/>
<path d="M61.1395 252.305C62.0163 252.305 62.7272 251.594 62.7272 250.717C62.7272 249.84 62.0163 249.129 61.1395 249.129H24.577C23.7001 249.129 22.9893 249.84 22.9893 250.717C22.9893 251.594 23.7001 252.305 24.577 252.305H61.1395Z" fill="#4A4B6D"/>
</g>
<defs>
<linearGradient id="paint0_linear_1_84" x1="236.728" y1="221.314" x2="236.094" y2="346.58" gradientUnits="userSpaceOnUse">
<stop stop-color="#090F1E"/>
<stop offset="1" stop-color="#13162C"/>
</linearGradient>
<linearGradient id="paint1_linear_1_84" x1="282.614" y1="91.2789" x2="322.358" y2="149.238" gradientUnits="userSpaceOnUse">
<stop stop-color="#E47468"/>
<stop offset="1" stop-color="#F0A291"/>
</linearGradient>
<linearGradient id="paint2_linear_1_84" x1="243.538" y1="192.777" x2="178.457" y2="156.718" gradientUnits="userSpaceOnUse">
<stop stop-color="#ED9888"/>
<stop offset="1" stop-color="#F3AC9A"/>
</linearGradient>
<linearGradient id="paint3_linear_1_84" x1="159.461" y1="70.1657" x2="197.302" y2="121.317" gradientUnits="userSpaceOnUse">
<stop stop-color="#0E1420" stop-opacity="0.2"/>
<stop offset="0.53" stop-color="#151D2E" stop-opacity="0"/>
<stop offset="1" stop-color="#0E1420" stop-opacity="0.2"/>
</linearGradient>
<linearGradient id="paint4_linear_1_84" x1="343.092" y1="145.791" x2="395.058" y2="185.857" gradientUnits="userSpaceOnUse">
<stop stop-color="#E47468"/>
<stop offset="1" stop-color="#F0A291"/>
</linearGradient>
<linearGradient id="paint5_linear_1_84" x1="365.178" y1="222.058" x2="393.024" y2="260.523" gradientUnits="userSpaceOnUse">
<stop stop-color="#F0A291"/>
<stop offset="1" stop-color="#F3AC9A"/>
</linearGradient>
<linearGradient id="paint6_linear_1_84" x1="305.964" y1="-3.05176e-05" x2="305.964" y2="99.799" gradientUnits="userSpaceOnUse">
<stop stop-color="#7F5607"/>
<stop offset="1" stop-color="#402C04"/>
</linearGradient>
<clipPath id="clip0_1_84">
<rect width="549.992" height="583.58" fill="white" transform="translate(0.00408936)"/>
</clipPath>
</defs>
</svg>
